<?xml version="1.0" encoding="utf-8"?>
<!-- Uploaded to: SVG Repo, www.svgrepo.com, Generator: SVG Repo Mixer Tools -->
<svg fill="#000000" version="1.1" id="Layer_1" xmlns="http://www.w3.org/2000/svg" xmlns:xlink="http://www.w3.org/1999/xlink" 
	 width="800px" height="800px" viewBox="0 0 260 217" enable-background="new 0 0 260 217" xml:space="preserve">
<path d="M15.9,31.1c-0.6-0.2-1.7-1-1.8-1.3c-0.1-0.2-0.1-0.2-0.3-0.3c-0.3,0-0.5-0.3-0.8-0.8c-0.1-0.1-0.2-0.3-0.4-0.5
	c-0.1-0.1-0.4-0.4-0.5-0.6c-0.1-0.2-0.5-0.5-0.7-0.8c-0.3-0.3-0.6-0.6-0.7-0.9c-0.1-0.3-0.3-0.6-0.4-0.7C10,25,10,25,10.2,24.7
	c0.1-0.1,0.3-0.3,0.3-0.3c0.2,0,0.8,0.3,1.8,1c0.3,0.2,0.6,0.4,0.7,0.5c0.1,0,0.3,0.2,0.5,0.4c0.2,0.2,0.4,0.3,0.4,0.3
	c0.1,0.1,0.5,0.7,0.7,1.2c0.2,0.4,0.3,0.6,0.7,0.9c0.6,0.5,0.7,0.6,1,1.2c0.1,0.3,0.3,0.6,0.4,0.7c0.1,0.2,0.2,0.3,0.2,0.3
	C16.9,31.1,16.2,31.2,15.9,31.1z"/>
<path d="M29.6,30.6c-0.1,0-1.9-0.1-3.3-0.1c-0.5,0-5.7-0.5-7.9-0.7c-0.4,0-0.8-0.1-0.9-0.1c-0.3,0-0.4-0.1-0.5-0.5
	c-0.1-0.2-0.2-0.3-0.3-0.4c-0.6-0.3-0.8-0.4-0.8-0.6c0-0.1-0.1-0.2-0.1-0.2c-0.2,0.1-0.6-0.3-0.8-0.7c-0.2-0.6-0.7-1-1.3-1.4
	c-0.5-0.3-0.6-0.3-0.6-0.7c0-0.3-0.1-0.4-0.2-0.4c-0.1,0-0.1,0-0.2,0c0,0-0.2-0.1-0.5-0.2c-0.2-0.1-0.5-0.2-0.5-0.2
	c0-0.1-0.1-0.2-0.1-0.2c-0.1-0.2-0.1-0.3-0.4-1.2c-0.2-0.7-0.2-0.8,0-1c0.2-0.3,0.2-0.3,0-0.5C11.1,21.4,11,21.2,11,21
	c-0.1-0.2-0.2-0.4-0.5-0.7C10,20,10,19.9,9.9,19.6c0-0.2,0-0.4,0.1-0.5c0.1-0.2,0.1-0.3-0.3-0.8c-0.2-0.2-0.3-0.4-0.5-1.3
	c-0.3-1-0.3-1.1-0.1-1.3c0.1-0.1,0.3-0.4,0.5-0.5c0.5-0.4,0.9-0.9,0.8-1.2c-0.1-0.3,0-0.8,0.2-1.2c0.2-0.3,0.2-0.4,0-0.8
	c-0.1-0.5-0.2-0.5-0.4-0.6c-0.3-0.2-1.1-1-1.4-1.5C8.6,9.5,8.6,9.3,8.5,8.5c0-0.9-0.1-1-0.2-1.4C8.2,6.8,8,6.3,7.8,5.9
	C7.7,5.5,7.5,5.1,7.5,5c0-0.1-0.1-0.3-0.2-0.5C7.2,4.3,6.9,3.8,6.6,3.2C6.3,2.7,6,2.2,6,2.1C5.9,2,5.8,1.9,5.6,1.9
	C4.9,1.8,4.9,1.9,4.8,2.2C4.7,2.4,4.6,2.5,4.3,2.8C4,2.9,3.7,3.2,3.5,3.3C3.4,3.4,3.2,3.6,3.2,3.6c0,0,0-0.1,0-0.3
	c0-0.4-0.3-1.4-0.6-1.6c-0.2-0.2-0.4-1-0.2-1c0.1,0,1,0.3,2.1,0.6c3,1,6.3,1.9,7.9,2.2c0.8,0.2,1.4,0.3,1.5,0.3
	C14.2,4,17,4.6,18.1,4.8c0.7,0.1,2.1,0.3,3.1,0.4c1.1,0.1,2,0.2,2,0.2c0,0,0.1,0.1,0.1,0.3c0,0.1-0.1,1.4-0.2,2.9
	c-0.1,1.4-0.2,3.1-0.3,3.6c-0.5,5.6-0.5,6.9-0.4,7.3c0.1,0.2,0.1,0.5,0,0.6c-0.1,0.3,0.1,0.6,0.4,0.7c0.4,0.1,1.2,0.9,1.4,1.5
	c0.1,0.3,0.3,0.6,0.5,0.8c0.2,0.2,0.3,0.3,0.4,0.4c0,0,0.1,0.2,0.3,0.2c0.1,0.1,0.3,0.3,0.5,0.5c0.1,0.2,0.2,0.4,0.3,0.4
	c0.1,0,0.7,0.6,0.8,0.9c0.1,0.1,0.5,0.7,1,1.2c0.5,0.6,0.9,1.1,1,1.3c0,0.1,0.1,0.6,0.1,1.1c0.1,0.8,0.2,1.2,0.5,1.4
	C29.7,30.5,29.7,30.6,29.6,30.6z"/>
<path d="M6.7,20.4c-0.5-0.7-0.9-1.5-1.2-2.9c-0.2-0.8-0.2-1.2-0.2-1.3c0-0.1,0.1-0.2,0-0.3c-0.1-0.2,0.3-0.3,0.7-0.2
	c0.5,0.2,1.1,0.5,1.2,0.7c0,0.1-0.2,0.5-0.5,1.1c-0.6,1.1-0.6,1.2,0.1,2.3c0.2,0.4,0.4,0.7,0.4,0.8C7.3,20.9,7,20.8,6.7,20.4z"/>
</svg>